<?xml version="1.0" encoding="UTF-8"?>
<svg version="1.1" xmlns="http://www.w3.org/2000/svg" width="500" height="500">
<path d="M0 0 C1.18851563 0.17402344 2.37703125 0.34804687 3.6015625 0.52734375 C5.09351583 0.6948079 6.58572303 0.8600198 8.078125 1.0234375 C29.63218009 3.61640653 56.31214054 9.06645806 70.5390625 26.96484375 C72.00257556 30.49449289 72.27908244 33.722079 72.6015625 37.52734375 C73.60123047 37.09421875 73.60123047 37.09421875 74.62109375 36.65234375 C84.1262477 32.82369433 92.46924694 32.16987064 102.25390625 35.48828125 C110.02573784 38.92806029 116.90185964 45.36808644 120.4140625 53.15234375 C124.85831578 65.78337939 122.52514539 78.85371768 116.8515625 90.77734375 C113.97128197 96.18856385 110.54739764 100.85583778 106.6015625 105.52734375 C106.15425781 106.11902344 105.70695313 106.71070313 105.24609375 107.3203125 C94.02549829 121.69978527 73.15681391 132.24764017 55.20605469 134.87841797 C53.54444505 135.07967693 51.88257608 135.27880594 50.22045898 135.47583008 C41.8406622 136.48895284 37.02017339 137.66122513 31.046875 144.05078125 C16.60744316 158.67474257 -6.07802792 165.48659557 -26.12524414 165.76879883 C-49.62552482 165.83961328 -71.29184726 159.06585386 -89.3984375 143.52734375 C-90.61466797 142.51027344 -90.61466797 142.51027344 -91.85546875 141.47265625 C-115.86590258 120.74475485 -126.94379849 90.55721789 -130.0859375 59.65234375 C-130.42821384 54.38711404 -130.56529819 49.11485451 -130.6484375 43.83984375 C-130.68070435 42.66349365 -130.68070435 42.66349365 -130.71362305 41.46337891 C-130.75007582 34.91976247 -129.61770447 28.84152758 -125.92578125 23.328125 C-112.15672234 10.43866199 -89.30467501 2.52734375 -70.3984375 2.52734375 C-69.56103969 4.65074535 -68.72863467 6.77611655 -67.8984375 8.90234375 C-67.434375 10.08570313 -66.9703125 11.2690625 -66.4921875 12.48828125 C-65.3984375 15.52734375 -65.3984375 15.52734375 -65.3984375 17.52734375 C-66.01138672 17.6473877 -66.62433594 17.76743164 -67.25585938 17.89111328 C-88.50340057 22.0264868 -88.50340057 22.0264868 -108.2109375 30.7109375 C-111.3984375 32.52734375 -111.3984375 32.52734375 -113.3984375 32.52734375 C-113.7284375 34.50734375 -114.0584375 36.48734375 -114.3984375 38.52734375 C-87.02051346 61.97252732 -35.941656 58.42659541 -2.17529297 56.00927734 C14.49849682 54.55097314 31.07674978 51.94688656 46.6015625 45.52734375 C47.52324219 45.18832031 48.44492187 44.84929687 49.39453125 44.5 C51.73529411 43.71014624 51.73529411 43.71014624 52.8515625 41.58984375 C54.33727402 38.11358541 54.33727402 38.11358541 53.92578125 34.5234375 C47.55960366 24.92722291 31.20587121 22.23318562 20.671875 19.98828125 C12.39113924 18.3276064 4.07072178 17.54673021 -4.3359375 16.83984375 C-5.8093117 16.70973982 -7.28261965 16.57888352 -8.75585938 16.44726562 C-12.30266881 16.1319999 -15.85024913 15.8267432 -19.3984375 15.52734375 C-15.87470791 6.30289547 -10.52083603 -0.97217852 0 0 Z M73.95751953 54.69116211 C70.92411557 58.79887389 70.79445563 64.28621484 70.1015625 69.21484375 C67.40830849 85.67556538 62.95671223 99.74985347 55.140625 114.46484375 C53.45188378 117.25393493 53.45188378 117.25393493 53.6015625 119.52734375 C66.4659878 118.29037978 79.13888808 111.07611803 88.6015625 102.52734375 C89.27316406 101.95886719 89.94476563 101.39039063 90.63671875 100.8046875 C99.26463154 92.97473196 106.0971148 81.16057302 107.6015625 69.52734375 C107.80631235 63.11495074 106.87873614 58.51737966 102.6015625 53.52734375 C98.12306496 49.4857728 94.87523756 48.21192985 88.78515625 48.3125 C83.28384698 48.85377372 78.15582529 51.0710937 73.95751953 54.69116211 Z M53.6015625 50.52734375 C51.52778343 51.29838258 51.52778343 51.29838258 49.234375 52.5546875 C47.91445557 53.24232178 47.91445557 53.24232178 46.56787109 53.94384766 C45.63023926 54.44577637 44.69260742 54.94770508 43.7265625 55.46484375 C42.77217285 55.97192871 41.8177832 56.47901367 40.83447266 57.00146484 C22.71719047 66.7450839 6.28013084 79.31659805 -6.4609375 95.58984375 C-16.8385803 108.57607436 -28.98692065 121.08423287 -43.3984375 129.52734375 C-44.09582031 129.94757813 -44.79320312 130.3678125 -45.51171875 130.80078125 C-54.93010712 135.98771977 -65.85813375 138.08398684 -76.3984375 139.52734375 C-62.91820397 147.31742845 -42.10412867 146.08020021 -27.52734375 142.43432617 C3.98547335 133.63035913 20.84028405 106.01161573 36.76953125 79.796875 C46.48430332 63.84364124 46.48430332 63.84364124 52.0390625 56.33984375 C52.71839844 55.41816406 53.39773438 54.49648438 54.09765625 53.546875 C54.59394531 52.88042969 55.09023438 52.21398437 55.6015625 51.52734375 C54.6115625 51.03234375 54.6115625 51.03234375 53.6015625 50.52734375 Z " fill="#196F39" transform="translate(269.3984375,208.47265625)"/>
<path d="M0 0 C-3.86157826 3.32641388 -8.40290783 5.10961434 -13 7.1875 C-20.89817529 10.85307106 -27.98227845 14.80960761 -35 20 C-36.05445313 20.77085937 -37.10890625 21.54171875 -38.1953125 22.3359375 C-75.76555946 50.2589422 -100.15120581 90.63514149 -107 137 C-113.27919991 181.4124241 -100.59828768 227.39441164 -73.97265625 263.19921875 C-69.65771224 268.81243963 -64.94786514 273.93740176 -60 279 C-59.15179688 279.91007812 -58.30359375 280.82015625 -57.4296875 281.7578125 C-32.61666415 307.75593547 1.84765595 323.31840021 37 329 C38.69382813 329.27457031 38.69382813 329.27457031 40.421875 329.5546875 C85.69438473 334.92958015 131.66032354 322.64852848 167.625 294.57421875 C202.69668453 266.31774052 226.62418585 225.76691144 231.65625 180.671875 C231.7696875 179.46015625 231.883125 178.2484375 232 177 C232.1340625 175.72640625 232.268125 174.4528125 232.40625 173.140625 C235.36156619 140.79306053 227.50247189 107.34069228 212 79 C211.36670907 77.79842912 210.73389027 76.59660927 210.1015625 75.39453125 C203.21857823 62.5808031 193.9632682 51.53907879 184 41 C183.23300781 40.18015625 182.46601563 39.3603125 181.67578125 38.515625 C165.30163661 21.53503056 145.28075727 10.65331901 124 1 C131.33876205 -3.89250803 144.64268366 -1.43231741 153 0 C159.20966624 2.03194944 164.01244482 5.90454945 169 10 C170.30536535 10.9899486 171.61403188 11.9755576 172.92578125 12.95703125 C211.88469229 42.7223231 237.90811147 86.90273043 244.4765625 135.58984375 C245.27220046 142.05405318 245.78600962 148.48950493 246 155 C246.04084717 156.12245117 246.04084717 156.12245117 246.08251953 157.26757812 C246.49791571 170.13179699 245.45952056 182.37074924 243 195 C242.83371094 195.8573877 242.66742188 196.71477539 242.49609375 197.59814453 C237.14327219 224.23834441 225.68603078 249.52653421 209 271 C208.33484375 271.87527344 207.6696875 272.75054687 206.984375 273.65234375 C177.96750314 310.98502644 134.72027764 335.82538693 87.93408203 342.65234375 C39.80374481 348.35525606 -9.58643292 337.17212262 -48.30566406 307.3359375 C-53.70555925 303.07826798 -58.91438365 298.62777622 -64 294 C-64.77706299 293.29302979 -64.77706299 293.29302979 -65.56982422 292.57177734 C-95.98883503 264.47840887 -118.18864298 221.1193784 -120.46630859 179.50317383 C-120.65170972 174.02443427 -120.65955801 168.55238624 -120.59692383 163.07128906 C-120.56236297 159.73677871 -120.57642945 156.40490213 -120.59570312 153.0703125 C-120.58534479 135.23251268 -118.12984462 118.69055069 -112.25 101.8125 C-111.90565918 100.80767578 -111.56131836 99.80285156 -111.20654297 98.76757812 C-103.13162511 75.75094096 -90.64461423 55.19725298 -74.078125 37.26953125 C-72.17076738 35.18649595 -70.36027793 33.0524058 -68.5625 30.875 C-67.716875 29.92625 -66.87125 28.9775 -66 28 C-65.34 28 -64.68 28 -64 28 C-64 27.34 -64 26.68 -64 26 C-60.53149903 22.77047055 -56.73408764 19.91575167 -53 17 C-51.54207031 15.8553125 -51.54207031 15.8553125 -50.0546875 14.6875 C-47.07600783 12.39987401 -44.04181422 10.20269306 -41 8 C-40.06285156 7.23816406 -39.12570313 6.47632812 -38.16015625 5.69140625 C-27.45873655 -2.19755098 -12.79225343 -2.87053361 0 0 Z " fill="#FCDE60" transform="translate(187,119)"/>
<path d="M0 0 C17.58974942 1.34061165 32.41897855 6.0623149 45.0859375 19.15625 C56.19694802 32.54768626 60.34465896 48.82678409 59 66 C55.95030202 92.2513218 36.56309652 112.92913695 17.625 129.8125 C4.29596888 141.81393838 -5.07520385 156.15204275 -6.875 174.1875 C-7.42508294 185.31264679 -4.94684274 195.60537605 -0.671875 205.828125 C0 208 0 208 -1 211 C-5.59474311 206.13800766 -8.7261346 201.25804371 -11.5 195.1875 C-11.88164307 194.36435303 -12.26328613 193.54120605 -12.65649414 192.69311523 C-22.26475531 171.48456232 -27.5057014 151.55073587 -19.3125 128.9375 C-14.86721643 118.54833348 -7.64598074 110.15941321 0 102 C1.74671454 100.02315676 3.4736567 98.03046134 5.19921875 96.03515625 C6.46697644 94.60239755 7.7643097 93.19553894 9.08203125 91.80859375 C22.21853957 77.84386424 33.66841066 60.78999321 33.24609375 41.015625 C32.30407719 29.47218393 26.4592456 19.61280632 18.13671875 11.75 C12.42787819 7.07438652 5.91629983 4.38926721 -1 2 C-0.67 1.34 -0.34 0.68 0 0 Z " fill="#FDDE5D" transform="translate(225,37)"/>
<path d="M0 0 C0.33 0.99 0.66 1.98 1 3 C-20.31064107 25.14071848 -20.31064107 25.14071848 -32 32 C-32.61262695 32.37125 -33.22525391 32.7425 -33.85644531 33.125 C-67.24556771 53.31454393 -106.51547808 60.06867544 -144.53881836 50.80029297 C-171.99990627 43.6260877 -204.5460227 28.31594598 -221 4 C-221 3.01 -221 2.02 -221 1 C-220.25878906 1.49628906 -219.51757812 1.99257813 -218.75390625 2.50390625 C-195.52201775 17.48946958 -168.22572729 23.21354264 -141 26 C-140.20924072 26.0935376 -139.41848145 26.1870752 -138.60375977 26.28344727 C-129.44548468 27.27502917 -120.26291259 27.2002127 -111.0625 27.1875 C-109.75401596 27.18609512 -109.75401596 27.18609512 -108.4190979 27.18466187 C-95.84442518 27.15535499 -83.4395615 27.01195527 -71 25 C-69.54424561 24.77401123 -69.54424561 24.77401123 -68.05908203 24.54345703 C-45.24441008 20.8968927 -18.12546537 15.42883305 0 0 Z " fill="#1A6F39" transform="translate(351,357)"/>
<path d="M0 0 C4.04325301 3.64658275 6.45738413 7.26144923 8.6875 12.25 C8.98205078 12.86746094 9.27660156 13.48492187 9.58007812 14.12109375 C15.58114574 27.20207261 16.3600536 44.27463993 12.4375 58.0625 C5.64742423 76.27224866 -6.26996187 89.66167706 -21.16015625 101.671875 C-25.58189382 105.29684831 -29.8024297 109.11977178 -34 113 C-34.62648438 113.54914063 -35.25296875 114.09828125 -35.8984375 114.6640625 C-45.79511799 123.75467852 -51.74958899 136.32341365 -53.3046875 149.6015625 C-53.46091437 154.65289807 -52.40593942 159.16708324 -51 164 C-55 164 -55 164 -56.78125 162.70703125 C-64.58857907 154.10122534 -67.34679328 142.47192154 -67 131 C-64.41294782 108.22020422 -53.17581306 92.93136631 -37.15234375 77.16015625 C-36.64621552 76.66181274 -36.14008728 76.16346924 -35.61862183 75.65002441 C-33.53842295 73.60631164 -31.45567317 71.56540679 -29.36303711 69.53442383 C-20.2879758 60.71085885 -12.25641984 51.56398183 -6.6875 40.0625 C-6.18959961 39.04192505 -6.18959961 39.04192505 -5.68164062 38.00073242 C-0.47656067 26.98650384 1.53220586 15.79983095 -0.578125 3.6796875 C-0.78695312 2.35324219 -0.78695312 2.35324219 -1 1 C-0.67 0.67 -0.34 0.34 0 0 Z " fill="#FDDE5D" transform="translate(292,91)"/>
<path d="M0 0 C6.94904142 1.248054 11.69545632 7.28144176 15.75 12.6875 C21.17251432 20.86470123 24.42400953 30.1493774 23 40 C19.48570749 56.44855254 9.8440719 68.76231331 -1.375 80.8125 C-16.2724259 96.86778365 -30.07618598 115.67095825 -30.859375 138.35546875 C-31 141 -31 141 -32 144 C-32.66 144 -33.32 144 -34 144 C-42.277301 129.43195024 -46.46902609 114.4640933 -41.97265625 97.984375 C-36.513493 81.23417128 -23.65054157 69.44172527 -10.05273438 58.97192383 C0.54225868 50.77071152 9.30277113 41.57013339 11.3203125 27.81640625 C11.84419397 18.01982271 7.56748521 9.97253506 1.390625 2.6796875 C0 1 0 1 0 0 Z " fill="#FCDE5D" transform="translate(225,43)"/>
<path d="M0 0 C0.4640625 0.268125 0.928125 0.53625 1.40625 0.8125 C17.5193101 10.03982484 17.5193101 10.03982484 35 16 C35 16.33 35 16.66 35 17 C33.35 17 31.7 17 30 17 C29.67 17.66 29.34 18.32 29 19 C29 18.01 29 17.02 29 16 C28.01 16.33 27.02 16.66 26 17 C23.73828125 16.22265625 23.73828125 16.22265625 21.3125 15.0625 C20.50425781 14.68222656 19.69601563 14.30195313 18.86328125 13.91015625 C18.24839844 13.60980469 17.63351563 13.30945313 17 13 C17 12.34 17 11.68 17 11 C15.68 11 14.36 11 13 11 C12.67 12.32 12.34 13.64 12 15 C9.99390948 12.88046983 7.99506397 10.75486559 6 8.625 C5.42765625 8.02171875 4.8553125 7.4184375 4.265625 6.796875 C3.72421875 6.21679688 3.1828125 5.63671875 2.625 5.0390625 C1.87089844 4.23782959 1.87089844 4.23782959 1.1015625 3.42041016 C0 2 0 2 0 0 Z " fill="#1E6C3D" transform="translate(129,358)"/>
<path d="M0 0 C7.16990382 1.28772109 11.88800596 7.55487043 15.9375 13.1875 C17.95981371 16.11271459 19.36176748 18.48568171 20 22 C19.01 21.67 18.02 21.34 17 21 C15.96514123 18.68191636 14.9644586 16.34824702 14 14 C13.34 13.67 12.68 13.34 12 13 C12 15.31 12 17.62 12 20 C10.27712542 17.41568813 9.00615011 14.98372548 7.6875 12.1875 C5.56596819 7.86866738 3.20159102 4.56748713 0 1 C0 0.67 0 0.34 0 0 Z " fill="#F9E275" transform="translate(225,43)"/>
<path d="M0 0 C2.54275398 0.2838704 5.08391554 0.57683422 7.625 0.875 C8.33785156 0.95363281 9.05070313 1.03226563 9.78515625 1.11328125 C14.08202185 1.62575146 17.921207 2.46884427 22 4 C22 4.33 22 4.66 22 5 C21.195625 5.12375 20.39125 5.2475 19.5625 5.375 C18.716875 5.58125 17.87125 5.7875 17 6 C16.67 6.66 16.34 7.32 16 8 C16.66 8 17.32 8 18 8 C18.33 9.32 18.66 10.64 19 12 C18.2265625 11.52949219 17.453125 11.05898438 16.65625 10.57421875 C10.88076993 7.12179687 5.4004748 4.09246292 -1 2 C-0.67 1.34 -0.34 0.68 0 0 Z " fill="#F8DD6C" transform="translate(225,37)"/>
<path d="M0 0 C0.33 0 0.66 0 1 0 C1.04254356 1.99954746 1.04080783 4.00041636 1 6 C0.67 6.33 0.34 6.66 0 7 C0.05847959 8.60526486 0.14673163 10.20949321 0.25 11.8125 C0.31916648 16.64723705 0.31916648 16.64723705 -2.375 19.625 C-5 21 -5 21 -7 21 C-7 22.32 -7 23.64 -7 25 C-7.66 25 -8.32 25 -9 25 C-9 26.32 -9 27.64 -9 29 C-9.99 29.33 -10.98 29.66 -12 30 C-10.14577527 23.97376962 -7.529566 18.35839491 -4.921875 12.6328125 C-3.04567916 8.47437843 -1.34447168 4.36953296 0 0 Z " fill="#FADF73" transform="translate(412,331)"/>
<path d="M0 0 C1.20978516 0.03544922 2.41957031 0.07089844 3.66601562 0.10742188 C4.81908203 0.15060547 5.97214844 0.19378906 7.16015625 0.23828125 C8.21984619 0.27606689 9.27953613 0.31385254 10.37133789 0.3527832 C12.9375 0.6875 12.9375 0.6875 14.9375 2.6875 C8.0075 2.6875 1.0775 2.6875 -6.0625 2.6875 C-6.0625 3.3475 -6.0625 4.0075 -6.0625 4.6875 C-5.0725 4.6875 -4.0825 4.6875 -3.0625 4.6875 C-3.0625 5.3475 -3.0625 6.0075 -3.0625 6.6875 C-12.65703303 3.79683941 -12.65703303 3.79683941 -16.0625 0.6875 C-10.87999124 -1.04000292 -5.41032834 -0.21109245 0 0 Z " fill="#F5DF7E" transform="translate(327.0625,118.3125)"/>
<path d="M0 0 C0.66 0 1.32 0 2 0 C0.54214273 5.08279969 -1.70109644 9.21818821 -4.4375 13.6875 C-5.03014648 14.68233398 -5.03014648 14.68233398 -5.63476562 15.69726562 C-7.53328523 18.83408753 -9.32184505 21.4657545 -12 24 C-12.24045528 19.91226018 -11.66783878 16.75263725 -10 13 C-7.9375 11.875 -7.9375 11.875 -6 11 C-5.19471111 8.94999129 -5.19471111 8.94999129 -5 7 C-4.01 7 -3.02 7 -2 7 C-2 5.68 -2 4.36 -2 3 C-1.34 3 -0.68 3 0 3 C0 2.01 0 1.02 0 0 Z " fill="#F9DE70" transform="translate(411,361)"/>
<path d="M0 0 C1.17337539 3.52012616 0.42619673 5.27412644 -0.51171875 8.7578125 C-1.96753624 15.4429264 -0.88272131 21.52814549 1 28 C-0.32 28 -1.64 28 -3 28 C-5.25 25.5 -5.25 25.5 -7 23 C-6.01 23 -5.02 23 -4 23 C-3.505 14.09 -3.505 14.09 -3 5 C-2.34 5 -1.68 5 -1 5 C-0.67 3.35 -0.34 1.7 0 0 Z " fill="#F8E078" transform="translate(240,227)"/>
<path d="M0 0 C3.31383593 2.78403771 5.07798464 6.48715268 7.0625 10.25 C7.5894043 11.21486328 7.5894043 11.21486328 8.12695312 12.19921875 C10.3593473 16.39392539 11.84730331 20.38921325 13 25 C12.34 25 11.68 25 11 25 C10.67 24.01 10.34 23.02 10 22 C9.01 21.67 8.02 21.34 7 21 C7 18.36 7 15.72 7 13 C5.68 13.33 4.36 13.66 3 14 C2.814375 12.4840625 2.814375 12.4840625 2.625 10.9375 C2.01914665 7.12062388 1.12806088 3.68499888 0 0 Z " fill="#FADD70" transform="translate(405,183)"/>
<path d="M0 0 C9.15979953 0.04441115 18.17603893 1.74185043 27.1875 3.25 C26.8575 3.91 26.5275 4.57 26.1875 5.25 C25.5275 4.92 24.8675 4.59 24.1875 4.25 C23.8575 4.91 23.5275 5.57 23.1875 6.25 C23.1875 5.59 23.1875 4.93 23.1875 4.25 C22.445 4.25 21.7025 4.25 20.9375 4.25 C15.94191612 4.25 11.13762124 3.94471657 6.1875 3.3125 C5.4759375 3.22548828 4.764375 3.13847656 4.03125 3.04882812 C0.69226224 2.62833993 -2.57492305 2.18586209 -5.8125 1.25 C-4.15607553 -0.40642447 -2.28820254 0.0384034 0 0 Z " fill="#22693F" transform="translate(265.8125,208.75)"/>
<path d="M0 0 C1 2 1 2 0.1875 4.5625 C-1 7 -1 7 -3 8 C-5.79717437 12.84911616 -7.58173436 17.32808998 -7 23 C-7.99 23 -8.98 23 -10 23 C-10.66 24.32 -11.32 25.64 -12 27 C-10.4946264 17.29870348 -6.18985921 7.66633939 0 0 Z " fill="#F7DC6D" transform="translate(239,185)"/>
<path d="M0 0 C0.66 0.33 1.32 0.66 2 1 C1.67 7.27 1.34 13.54 1 20 C0.01 20.33 -0.98 20.66 -2 21 C-6 14.25 -6 14.25 -6 12 C-3.525 12.495 -3.525 12.495 -1 13 C-0.67 8.71 -0.34 4.42 0 0 Z " fill="#FAE079" transform="translate(193,166)"/>
<path d="M0 0 C0.99 0.33 1.98 0.66 3 1 C3 1.99 3 2.98 3 4 C3.99 4 4.98 4 6 4 C6.33 3.34 6.66 2.68 7 2 C7.6987693 3.76641683 8.38366583 5.53832664 9.0625 7.3125 C9.44535156 8.29863281 9.82820312 9.28476563 10.22265625 10.30078125 C11 13 11 13 10 16 C5.29951853 11.12716754 2.43201286 6.30892748 0 0 Z " fill="#F6E08C" transform="translate(214,232)"/>
<path d="M0 0 C0.66 0.33 1.32 0.66 2 1 C1.51789063 1.53109375 1.03578125 2.0621875 0.5390625 2.609375 C-0.09257812 3.31578125 -0.72421875 4.0221875 -1.375 4.75 C-2.00148438 5.44609375 -2.62796875 6.1421875 -3.2734375 6.859375 C-4.88214721 8.85388387 -5.89254855 10.708057 -7 13 C-9.3773161 15.3773161 -10.70285207 15.67028521 -14 16 C-14.66 15.34 -15.32 14.68 -16 14 C-15.43152344 13.57589844 -14.86304688 13.15179688 -14.27734375 12.71484375 C-9.12443923 8.80070091 -4.44499803 4.7022648 0 0 Z " fill="#226A3F" transform="translate(365,303)"/>
<path d="M0 0 C5.57142857 5.14285714 5.57142857 5.14285714 6 9 C5.34 9 4.68 9 4 9 C3.67 11.64 3.34 14.28 3 17 C2.34 17 1.68 17 1 17 C0.63917123 14.35491639 0.28604648 11.70920453 -0.0625 9.0625 C-0.16626953 8.30775391 -0.27003906 7.55300781 -0.37695312 6.77539062 C-0.62665638 4.85525872 -0.81790281 2.92771856 -1 1 C-0.67 0.67 -0.34 0.34 0 0 Z " fill="#FBDE65" transform="translate(292,91)"/>
<path d="M0 0 C0 0.66 0 1.32 0 2 C-0.99 2.495 -0.99 2.495 -2 3 C-2 4.65 -2 6.3 -2 8 C-2.86625 8.020625 -3.7325 8.04125 -4.625 8.0625 C-9.31473013 9.36520281 -11.18859744 12.18167667 -14 16 C-14.66 15.67 -15.32 15.34 -16 15 C-3.18181818 0 -3.18181818 0 0 0 Z M-2 4 C0 5 0 5 0 5 Z " fill="#FAE168" transform="translate(208,109)"/>
<path d="M0 0 C8.91 0 17.82 0 27 0 C27 0.33 27 0.66 27 1 C22.37540756 2.17700048 17.92133538 2.11408412 13.1875 2.0625 C12.00510742 2.05573242 12.00510742 2.05573242 10.79882812 2.04882812 C8.86585239 2.03711312 6.93291607 2.01917998 5 2 C4.67 2.66 4.34 3.32 4 4 C4 3.34 4 2.68 4 2 C2.68 2 1.36 2 0 2 C0 1.34 0 0.68 0 0 Z " fill="#276941" transform="translate(224,385)"/>
<path d="M0 0 C1.32 0.33 2.64 0.66 4 1 C4 1.66 4 2.32 4 3 C4.7425 3.2475 5.485 3.495 6.25 3.75 C9.26049464 5.11840665 10.71263803 6.64332403 13 9 C14.0725 9.680625 15.145 10.36125 16.25 11.0625 C17.1575 11.701875 18.065 12.34125 19 13 C19 13.99 19 14.98 19 16 C12.23741276 11.48219642 5.79236087 6.73639603 0 1 C0 0.67 0 0.34 0 0 Z " fill="#24683F" transform="translate(172,344)"/>
<path d="M0 0 C1 3 1 3 0.25 5.625 C-1 8 -1 8 -4 9 C-5.4587688 10.29078411 -5.4587688 10.29078411 -7 12 C-8.66666667 13.66666667 -10.33333333 15.33333333 -12 17 C-12.99 16.67 -13.98 16.34 -15 16 C-14.58113525 15.58637207 -14.16227051 15.17274414 -13.73071289 14.74658203 C-11.83870591 12.87533169 -9.95056815 11.00022415 -8.0625 9.125 C-7.40314453 8.47402344 -6.74378906 7.82304687 -6.06445312 7.15234375 C-5.43603516 6.52714844 -4.80761719 5.90195312 -4.16015625 5.2578125 C-3.57886963 4.6817627 -2.99758301 4.10571289 -2.39868164 3.51220703 C-0.90048064 2.03347525 -0.90048064 2.03347525 0 0 Z " fill="#236A41" transform="translate(284,320)"/>
<path d="M0 0 C0.66 0.66 1.32 1.32 2 2 C1.51789063 2.79664063 1.03578125 3.59328125 0.5390625 4.4140625 C-0.40839844 6.00347656 -0.40839844 6.00347656 -1.375 7.625 C-2.00148437 8.66914063 -2.62796875 9.71328125 -3.2734375 10.7890625 C-4.90451153 13.82241736 -6.02076833 16.70622076 -7 20 C-7.33 20 -7.66 20 -8 20 C-7.88570603 18.22844346 -7.75816963 16.45773771 -7.625 14.6875 C-7.55539063 13.70136719 -7.48578125 12.71523437 -7.4140625 11.69921875 C-7 9 -7 9 -5 6 C-4.01 6 -3.02 6 -2 6 C-2.33 5.01 -2.66 4.02 -3 3 C-2.01 2.01 -1.02 1.02 0 0 Z " fill="#F8DE76" transform="translate(227,180)"/>
<path d="M0 0 C-2.93828597 2.50298434 -5.17902761 3.46930939 -9 4 C-9 3.01 -9 2.02 -9 1 C-15.27 1 -21.54 1 -28 1 C-28 0.67 -28 0.34 -28 0 C-24.27129547 -0.19756803 -20.54203204 -0.38128099 -16.8125 -0.5625 C-15.75740234 -0.61857422 -14.70230469 -0.67464844 -13.61523438 -0.73242188 C-12.59365234 -0.78076172 -11.57207031 -0.82910156 -10.51953125 -0.87890625 C-9.58214111 -0.9260376 -8.64475098 -0.97316895 -7.67895508 -1.02172852 C-4.98697068 -0.99989432 -2.61483024 -0.61586406 0 0 Z " fill="#F5E387" transform="translate(187,119)"/>
<path d="M0 0 C3.66415876 2.06312314 6.70548128 4.35872176 9.8125 7.1875 C10.60269531 7.90292969 11.39289063 8.61835938 12.20703125 9.35546875 C12.79871094 9.89816406 13.39039063 10.44085938 14 11 C9.94889889 11 6.47797328 10.12889396 3 8 C2 4.8125 2 4.8125 2 2 C1.34 2 0.68 2 0 2 C0 1.34 0 0.68 0 0 Z " fill="#F8DF74" transform="translate(361,134)"/>
<path d="M0 0 C0.66 0 1.32 0 2 0 C3.625 3.3125 3.625 3.3125 5 7 C4.01 8.485 4.01 8.485 3 10 C2.34 10 1.68 10 1 10 C0.67 10.99 0.34 11.98 0 13 C-2.06640625 14.38671875 -2.06640625 14.38671875 -4.5625 15.6875 C-5.80193359 16.34298828 -5.80193359 16.34298828 -7.06640625 17.01171875 C-8.02353516 17.50091797 -8.02353516 17.50091797 -9 18 C-9.66 17.34 -10.32 16.68 -11 16 C-9.71086513 15.32845067 -8.41859796 14.66291141 -7.125 14 C-6.40570313 13.62875 -5.68640625 13.2575 -4.9453125 12.875 C-3 12 -3 12 -1 12 C0.20628008 9.66785852 1.1654738 7.50357861 2 5 C1.12085312 2.3430809 1.12085312 2.3430809 0 0 Z " fill="#246940" transform="translate(322,240)"/>
<path d="M0 0 C0.33 1.32 0.66 2.64 1 4 C0.01 4.495 0.01 4.495 -1 5 C-1.65772428 8.02934491 -1.65772428 8.02934491 -2 11 C-2.99 11 -3.98 11 -5 11 C-6.4694809 12.76732099 -6.4694809 12.76732099 -7.6875 15 C-8.12449219 15.7425 -8.56148438 16.485 -9.01171875 17.25 C-9.33785156 17.8275 -9.66398437 18.405 -10 19 C-10.66 18.67 -11.32 18.34 -12 18 C-8.04 12.06 -4.08 6.12 0 0 Z " fill="#F6DF79" transform="translate(102,169)"/>
<path d="M0 0 C0.33 0.99 0.66 1.98 1 3 C-1.64 5.64 -4.28 8.28 -7 11 C-9 8 -9 8 -9 6 C-7.03125 4.4921875 -7.03125 4.4921875 -4.5 2.875 C-3.6646875 2.33617187 -2.829375 1.79734375 -1.96875 1.2421875 C-1.3190625 0.83226562 -0.669375 0.42234375 0 0 Z " fill="#246641" transform="translate(351,357)"/>
<path d="M0 0 C2.33944736 0.28730055 4.6739143 0.61936779 7 1 C7 1.33 7 1.66 7 2 C4.06333774 2.67055285 1.12577641 3.33659053 -1.8125 4 C-3.06256836 4.28617188 -3.06256836 4.28617188 -4.33789062 4.578125 C-5.14033203 4.75859375 -5.94277344 4.9390625 -6.76953125 5.125 C-7.50792236 5.29257813 -8.24631348 5.46015625 -9.00708008 5.6328125 C-11 6 -11 6 -14 6 C-13.67 5.01 -13.34 4.02 -13 3 C-12.67 3.33 -12.34 3.66 -12 4 C-9.1007774 3.53238345 -8.13324818 3.13324818 -6 1 C-4.33382885 0.95936168 -2.66611905 0.957279 -1 1 C-0.67 0.67 -0.34 0.34 0 0 Z " fill="#226940" transform="translate(192,225)"/>
<path d="M0 0 C2.475 0.99 2.475 0.99 5 2 C5 2.66 5 3.32 5 4 C4.01 4.495 4.01 4.495 3 5 C3.66 5.33 4.32 5.66 5 6 C5 6.66 5 7.32 5 8 C1.08788267 6.84414715 -1.8745041 5.64465038 -5 3 C-4.360625 2.690625 -3.72125 2.38125 -3.0625 2.0625 C-1.06389179 1.1654837 -1.06389179 1.1654837 0 0 Z " fill="#FBDF71" transform="translate(329,122)"/>
<path d="M0 0 C4.62 0 9.24 0 14 0 C13.01 1.485 13.01 1.485 12 3 C9.6875 3.328125 9.6875 3.328125 7 3.25 C5.6696875 3.22679687 5.6696875 3.22679687 4.3125 3.203125 C2 3 2 3 0 2 C0 1.34 0 0.68 0 0 Z " fill="#266C41" transform="translate(216,353)"/>
<path d="M0 0 C0.99 0 1.98 0 3 0 C3 0.66 3 1.32 3 2 C-1.95 4.31 -6.9 6.62 -12 9 C-12.33 8.34 -12.66 7.68 -13 7 C-12.01 7 -11.02 7 -10 7 C-10 6.34 -10 5.68 -10 5 C-3.375 2 -3.375 2 0 2 C0 1.34 0 0.68 0 0 Z " fill="#256C3F" transform="translate(320,258)"/>
<path d="M0 0 C0.625 1.8125 0.625 1.8125 1 4 C0.01 5.485 0.01 5.485 -1 7 C-1.66 7 -2.32 7 -3 7 C-2.67 8.65 -2.34 10.3 -2 12 C-2.99 12.495 -2.99 12.495 -4 13 C-4 12.34 -4 11.68 -4 11 C-4.99 11.33 -5.98 11.66 -7 12 C-5.44298069 7.32894208 -2.91552627 3.91294315 0 0 Z " fill="#F9DE77" transform="translate(218,146)"/>
<path d="M0 0 C0.33 0 0.66 0 1 0 C1.22237877 2.41611533 1.42832339 4.8317717 1.625 7.25 C1.68945312 7.93191406 1.75390625 8.61382812 1.8203125 9.31640625 C2.11594735 13.1227049 2.17561392 15.77809846 0 19 C-1.59456558 12.82105839 -1.59456558 6.17894161 0 0 Z " fill="#F8E28C" transform="translate(182,145)"/>
<path d="M0 0 C0.66 0 1.32 0 2 0 C2 0.99 2 1.98 2 3 C2.99 3 3.98 3 5 3 C5.53190541 4.43344 6.05015258 5.87195367 6.5625 7.3125 C6.85253906 8.11300781 7.14257812 8.91351563 7.44140625 9.73828125 C8 12 8 12 7 15 C5.82823482 12.87767021 4.66245215 10.75242209 3.5 8.625 C3.16613281 8.02171875 2.83226563 7.4184375 2.48828125 6.796875 C0 2.2265625 0 2.2265625 0 0 Z " fill="#F7DF7D" transform="translate(85,360)"/>
<path d="M0 0 C1.32 0.33 2.64 0.66 4 1 C4.06058594 1.59167969 4.12117188 2.18335938 4.18359375 2.79296875 C4.62012371 6.90978208 5.08671346 10.95544533 6 15 C2.35219334 10.8310781 0 5.55196264 0 0 Z " fill="#F7E079" transform="translate(75,336)"/>
<path d="M0 0 C0.33 3.3 0.66 6.6 1 10 C-1.40072955 7.11912454 -3.47291037 4.43595166 -5 1 C-3 0 -3 0 0 0 Z " fill="#FBDE6F" transform="translate(392,176)"/>
<path d="M0 0 C0.66 0 1.32 0 2 0 C2 0.66 2 1.32 2 2 C2.66 2 3.32 2 4 2 C4.33 2.99 4.66 3.98 5 5 C5.66 5.33 6.32 5.66 7 6 C8.6875 8.375 8.6875 8.375 10 11 C9.67 11.99 9.34 12.98 9 14 C5.48453819 9.51750177 2.35287886 5.22861968 0 0 Z " fill="#F8DF7D" transform="translate(93,375)"/>
<path d="M0 0 C1 3 1 3 -0.3125 5.875 C-0.869375 6.90625 -1.42625 7.9375 -2 9 C-2.68528045 10.65910004 -3.35891863 12.32332564 -4 14 C-5.32 13.67 -6.64 13.34 -8 13 C-5.36 8.71 -2.72 4.42 0 0 Z " fill="#F5E07B" transform="translate(399,361)"/>
<path d="M0 0 C1.68373405 3.3674681 2.68218415 6.15015766 3.625 9.75 C3.88539062 10.73484375 4.14578125 11.7196875 4.4140625 12.734375 C4.60742188 13.48203125 4.80078125 14.2296875 5 15 C3.29159719 13.36587557 2.06546953 12.13093906 1 10 C0.34 10 -0.32 10 -1 10 C-0.67 6.7 -0.34 3.4 0 0 Z " fill="#F7DE6E" transform="translate(83,322)"/>
<path d="M0 0 C0.66 0.66 1.32 1.32 2 2 C1.34 3.98 0.68 5.96 0 8 C-1.98 8.33 -3.96 8.66 -6 9 C-4.02 6.03 -2.04 3.06 0 0 Z " fill="#216A3F" transform="translate(324,260)"/>
<path d="M0 0 C0.33 0 0.66 0 1 0 C1.2358396 5.77807024 0.86783046 10.51324804 -1 16 C-1.66 16 -2.32 16 -3 16 C-2.52013969 10.43109483 -1.70084819 5.32932432 0 0 Z " fill="#F8E07A" transform="translate(72,230)"/>
<path d="M0 0 C0.763125 0.309375 1.52625 0.61875 2.3125 0.9375 C4.18789677 1.67893593 6.08684652 2.36228217 8 3 C8 3.99 8 4.98 8 6 C7.34 6 6.68 6 6 6 C5.67 6.66 5.34 7.32 5 8 C5.66 8 6.32 8 7 8 C6.67 8.99 6.34 9.98 6 11 C3.84733158 8.84733158 3.06525538 7.15226256 1.875 4.375 C1.52179688 3.55773437 1.16859375 2.74046875 0.8046875 1.8984375 C0.53914063 1.27195313 0.27359375 0.64546875 0 0 Z " fill="#FBE078" transform="translate(400,199)"/>
<path d="M0 0 C0.66 0 1.32 0 2 0 C0.97137215 5.44567686 -0.24614784 10.11817117 -3 15 C-4.60080151 10.99799622 -3.29279692 7.95443764 -2 4 C-1.34 4 -0.68 4 0 4 C0 2.68 0 1.36 0 0 Z " fill="#F5E17B" transform="translate(303,144)"/>
<path d="M0 0 C1.40668945 0.01450195 1.40668945 0.01450195 2.84179688 0.02929688 C3.81826172 0.05443359 4.79472656 0.07957031 5.80078125 0.10546875 C6.78884766 0.11900391 7.77691406 0.13253906 8.79492188 0.14648438 C11.23492356 0.18184672 13.67382844 0.23119842 16.11328125 0.29296875 C16.11328125 0.62296875 16.11328125 0.95296875 16.11328125 1.29296875 C9.84328125 1.29296875 3.57328125 1.29296875 -2.88671875 1.29296875 C-2.88671875 1.95296875 -2.88671875 2.61296875 -2.88671875 3.29296875 C-4.53671875 3.29296875 -6.18671875 3.29296875 -7.88671875 3.29296875 C-5.42854811 0.24399315 -3.85656876 -0.07011943 0 0 Z " fill="#F7DF73" transform="translate(161.88671875,119.70703125)"/>
<path d="M0 0 C1.32 1.32 2.64 2.64 4 4 C3.21625 4.433125 2.4325 4.86625 1.625 5.3125 C-1.21698375 6.89220247 -1.21698375 6.89220247 -3 10 C-3.66 10 -4.32 10 -5 10 C-3.66511872 6.40608886 -2.03977277 3.24509304 0 0 Z " fill="#206C40" transform="translate(299,298)"/>
<path d="M0 0 C1.90389849 2.85584773 2.69462177 4.9311762 3.625 8.1875 C3.88539063 9.08855469 4.14578125 9.98960937 4.4140625 10.91796875 C4.60742188 11.60503906 4.80078125 12.29210937 5 13 C4.34 12.67 3.68 12.34 3 12 C3 11.34 3 10.68 3 10 C2.01 10.33 1.02 10.66 0 11 C0 7.33333333 0 3.66666667 0 0 Z " fill="#F8DB6A" transform="translate(418,208)"/>
<path d="M0 0 C0 3 0 3 -1.96875 5.26171875 C-2.8040625 6.06222656 -3.639375 6.86273438 -4.5 7.6875 C-5.3353125 8.49574219 -6.170625 9.30398437 -7.03125 10.13671875 C-8.00578125 11.05904297 -8.00578125 11.05904297 -9 12 C-9.99 11.67 -10.98 11.34 -12 11 C-10.625 9.5 -10.625 9.5 -9 8 C-8.34 8 -7.68 8 -7 8 C-7 7.34 -7 6.68 -7 6 C-5.46875 4.4921875 -5.46875 4.4921875 -3.5 2.875 C-2.8503125 2.33617187 -2.200625 1.79734375 -1.53125 1.2421875 C-0.77328125 0.62730469 -0.77328125 0.62730469 0 0 Z " fill="#F7E38B" transform="translate(130,139)"/>
<path d="M0 0 C1.65 0 3.3 0 5 0 C5.33 0.99 5.66 1.98 6 3 C5.34 3 4.68 3 4 3 C4 4.32 4 5.64 4 7 C3.34 7 2.68 7 2 7 C1.67 5.68 1.34 4.36 1 3 C0.34 3 -0.32 3 -1 3 C-0.67 2.01 -0.34 1.02 0 0 Z " fill="#FCDD59" transform="translate(242,42)"/>
<path d="M0 0 C5.28 0.66 10.56 1.32 16 2 C16 2.33 16 2.66 16 3 C12.37 2.67 8.74 2.34 5 2 C5 2.66 5 3.32 5 4 C3.02 3.34 1.04 2.68 -1 2 C-0.67 1.34 -0.34 0.68 0 0 Z " fill="#F9EBA5" transform="translate(225,37)"/>
<path d="M0 0 C1.32 0.66 2.64 1.32 4 2 C2.35 4.64 0.7 7.28 -1 10 C-2.06546953 6.8035914 -2.07427838 4.34252724 -2 1 C-1.34 0.67 -0.68 0.34 0 0 Z " fill="#F8DF70" transform="translate(244,214)"/>
<path d="M0 0 C2.97 1.65 5.94 3.3 9 5 C8.34 6.32 7.68 7.64 7 9 C5.82737096 7.88121617 4.66204862 6.75476949 3.5 5.625 C2.8503125 4.99851562 2.200625 4.37203125 1.53125 3.7265625 C0 2 0 2 0 0 Z " fill="#2A6B48" transform="translate(129,358)"/>
<path d="M0 0 C0.99 0.33 1.98 0.66 3 1 C3 1.99 3 2.98 3 4 C3.99 4 4.98 4 6 4 C6.33 3.34 6.66 2.68 7 2 C7 4.31 7 6.62 7 9 C4.60510457 8.25675659 3.29222384 7.52942646 2.06640625 5.30859375 C1.32780077 3.55926499 0.65950315 1.78065851 0 0 Z " fill="#F9E076" transform="translate(214,232)"/>
<path d="M0 0 C0.33 0 0.66 0 1 0 C1 1.65 1 3.3 1 5 C3.97 5 6.94 5 10 5 C10 5.33 10 5.66 10 6 C5.71 6 1.42 6 -3 6 C-1 1 -1 1 0 0 Z " fill="#296D3C" transform="translate(253,218)"/>
<path d="M0 0 C2.31 0.33 4.62 0.66 7 1 C3.73386305 2.91302307 1.00554752 3.35674661 -2.75 3.625 C-3.73484375 3.69976562 -4.7196875 3.77453125 -5.734375 3.8515625 C-6.48203125 3.90054687 -7.2296875 3.94953125 -8 4 C-7.67 3.34 -7.34 2.68 -7 2 C-4.69 2 -2.38 2 0 2 C0 1.34 0 0.68 0 0 Z " fill="#226A3D" transform="translate(202,344)"/>
<path d="M0 0 C4.84455959 2.20207254 4.84455959 2.20207254 7 4 C7.9375 7.75 7.9375 7.75 8 11 C2.19794344 5.35475578 2.19794344 5.35475578 0 2 C0 1.34 0 0.68 0 0 Z " fill="#24663F" transform="translate(159,327)"/>
<path d="M0 0 C0.66 0 1.32 0 2 0 C2.91848119 2.75544358 3.08426974 4.24473058 3 7.0625 C2.70651608 10.78571015 2.70651608 10.78571015 4 13 C3.01 13 2.02 13 1 13 C0.67 8.71 0.34 4.42 0 0 Z " fill="#216F43" transform="translate(140,268)"/>
<path d="M0 0 C1 2 1 2 0.1875 4.5625 C-1 7 -1 7 -3 8 C-4.13350534 10.01669827 -4.13350534 10.01669827 -5 12 C-5.66 11.67 -6.32 11.34 -7 11 C-4.69 7.37 -2.38 3.74 0 0 Z " fill="#F6E17F" transform="translate(239,185)"/>
<path d="M0 0 C3.63559661 3.43361902 6.36113346 6.7973607 9 11 C8.01 10.67 7.02 10.34 6 10 C5.67 9.34 5.34 8.68 5 8 C4.01 8.495 4.01 8.495 3 9 C2.01 6.03 1.02 3.06 0 0 Z " fill="#F6DD78" transform="translate(386,157)"/>
<path d="M0 0 C0.33 0.99 0.66 1.98 1 3 C0.34 3.66 -0.32 4.32 -1 5 C-0.67 5.99 -0.34 6.98 0 8 C-0.99 8.495 -0.99 8.495 -2 9 C-3.32 8.34 -4.64 7.68 -6 7 C-4.02 4.69 -2.04 2.38 0 0 Z " fill="#F8E173" transform="translate(112,157)"/>
<path d="M0 0 C3.28788824 3.11016455 5.83735988 6.01618925 8 10 C7.34 10 6.68 10 6 10 C5.67 9.34 5.34 8.68 5 8 C4.34 7.7525 3.68 7.505 3 7.25 C1 6 1 6 0.25 2.875 C0.1675 1.92625 0.085 0.9775 0 0 Z " fill="#FAE181" transform="translate(267,54)"/>
<path d="M0 0 C0.51949219 0.26554687 1.03898438 0.53109375 1.57421875 0.8046875 C5.33020694 2.70698097 9.05225879 4.51959705 13 6 C9.22134307 7.25955231 7.96588214 6.48087189 4.3125 5.0625 C3.31863281 4.68222656 2.32476562 4.30195313 1.30078125 3.91015625 C0.54152344 3.60980469 -0.21773437 3.30945313 -1 3 C-0.67 2.01 -0.34 1.02 0 0 Z " fill="#286A40" transform="translate(205,364)"/>
<path d="M0 0 C0.33 0 0.66 0 1 0 C1.36463732 1.74784829 1.7163078 3.49840502 2.0625 5.25 C2.25972656 6.22453125 2.45695313 7.1990625 2.66015625 8.203125 C2.98397535 10.868119 2.85503199 12.48871723 2 15 C2 14.34 2 13.68 2 13 C1.34 13 0.68 13 0 13 C0 8.71 0 4.42 0 0 Z " fill="#F6DE79" transform="translate(217,219)"/>
<path d="M0 0 C0 3.77910478 -0.99703962 4.46106101 -3.5 7.1875 C-4.1496875 7.90292969 -4.799375 8.61835937 -5.46875 9.35546875 C-5.9740625 9.89816406 -6.479375 10.44085938 -7 11 C-7.66 10.67 -8.32 10.34 -9 10 C-7.8758824 8.70756532 -6.75067408 7.41607925 -5.625 6.125 C-4.99851563 5.40570313 -4.37203125 4.68640625 -3.7265625 3.9453125 C-2.52573166 2.5923402 -1.2791655 1.2791655 0 0 Z " fill="#F5E282" transform="translate(201,114)"/>
<path d="M0 0 C2.64 1.65 5.28 3.3 8 5 C4.29847322 5.92538169 3.36541838 6.08174162 0 5 C0 3.35 0 1.7 0 0 Z " fill="#FAE082" transform="translate(148,417)"/>
<path d="M0 0 C3.98381075 2.16264012 6.88983545 4.71211176 10 8 C6.66666667 6.66666667 3.33333333 5.33333333 0 4 C0 2.68 0 1.36 0 0 Z " fill="#F7E082" transform="translate(137,409)"/>
<path d="M0 0 C1.75128818 0.28382946 3.50100003 0.57739529 5.25 0.875 C6.71179688 1.11863281 6.71179688 1.11863281 8.203125 1.3671875 C10.77264117 1.94855848 12.72071056 2.70840265 15 4 C12.69 4.33 10.38 4.66 8 5 C8 4.34 8 3.68 8 3 C5.36 2.34 2.72 1.68 0 1 C0 0.67 0 0.34 0 0 Z " fill="#20673E" transform="translate(164,375)"/>
<path d="M0 0 C1 3 1 3 1 6 C0.071875 6.12375 0.071875 6.12375 -0.875 6.25 C-3.18437567 6.81258459 -3.18437567 6.81258459 -4.25 9.0625 C-4.4975 9.701875 -4.745 10.34125 -5 11 C-5 7.58678765 -4.33132534 6.60527115 -2.5 3.8125 C-2.0359375 3.09707031 -1.571875 2.38164062 -1.09375 1.64453125 C-0.7328125 1.10183594 -0.371875 0.55914062 0 0 Z " fill="#246A3F" transform="translate(308,284)"/>
<path d="M0 0 C0.33 0 0.66 0 1 0 C1.33 1.98 1.66 3.96 2 6 C-0.66666667 6 -3.33333333 6 -6 6 C-4 4 -2 2 0 0 Z " fill="#F9DF70" transform="translate(221,97)"/>
<path d="M0 0 C2.22825644 2.22825644 2.69239369 3.65761628 3.625 6.625 C3.88539062 7.44226563 4.14578125 8.25953125 4.4140625 9.1015625 C4.60742188 9.72804688 4.80078125 10.35453125 5 11 C4.01 10.67 3.02 10.34 2 10 C0.76132839 7.38502661 -0.08503983 4.74488051 -1 2 C-0.67 1.34 -0.34 0.68 0 0 Z " fill="#F8E17D" transform="translate(90,343)"/>
<path d="M0 0 C1.43583001 -0.10836453 2.8740202 -0.18576167 4.3125 -0.25 C5.11300781 -0.29640625 5.91351563 -0.3428125 6.73828125 -0.390625 C9 0 9 0 10.79296875 2.015625 C11.19128906 2.67046875 11.58960938 3.3253125 12 4 C10.1858073 3.71905418 8.37364999 3.42493567 6.5625 3.125 C5.04849609 2.88136719 5.04849609 2.88136719 3.50390625 2.6328125 C2.67761719 2.42398438 1.85132813 2.21515625 1 2 C0.67 1.34 0.34 0.68 0 0 Z " fill="#206D41" transform="translate(287,226)"/>
<path d="M0 0 C0.99 0.33 1.98 0.66 3 1 C1.8141763 4.37503669 0.72426311 6.64722731 -2 9 C-2.20140476 5.37471432 -1.85776765 3.13498292 0 0 Z " fill="#F8E283" transform="translate(401,376)"/>
<path d="M0 0 C0 0.99 0 1.98 0 3 C-1.26607607 3.53229326 -2.53810412 4.05044544 -3.8125 4.5625 C-4.52019531 4.85253906 -5.22789062 5.14257812 -5.95703125 5.44140625 C-8 6 -8 6 -11 5 C-7.37 3.35 -3.74 1.7 0 0 Z " fill="#23673F" transform="translate(259,343)"/>
<path d="M0 0 C0.66 0 1.32 0 2 0 C2.16702456 4.34263862 2.12999997 7.20960634 0 11 C-0.19406478 9.35492782 -0.38007935 7.70890406 -0.5625 6.0625 C-0.66691406 5.14597656 -0.77132813 4.22945313 -0.87890625 3.28515625 C-0.91886719 2.53105469 -0.95882813 1.77695312 -1 1 C-0.67 0.67 -0.34 0.34 0 0 Z " fill="#F7E080" transform="translate(429,303)"/>
<path d="M0 0 C0.66 0.33 1.32 0.66 2 1 C-0.37050084 3.62002725 -2.87276017 5.35819909 -6 7 C-6.99 7 -7.98 7 -9 7 C-7.87720538 6.01830524 -6.75168527 5.03972702 -5.625 4.0625 C-4.68527344 3.24458984 -4.68527344 3.24458984 -3.7265625 2.41015625 C-2 1 -2 1 0 0 Z " fill="#226A3F" transform="translate(154,224)"/>
<path d="M0 0 C-4.30769231 3.93846154 -4.30769231 3.93846154 -7.8125 4.25 C-8.534375 4.1675 -9.25625 4.085 -10 4 C-7.39928297 0.98864344 -3.94054294 -1.97027147 0 0 Z " fill="#23683F" transform="translate(166,220)"/>
<path d="M0 0 C-3.465 2.97 -3.465 2.97 -7 6 C-6.75 3.625 -6.75 3.625 -6 1 C-2.69333333 -1.34666667 -2.69333333 -1.34666667 0 0 Z " fill="#F4DE81" transform="translate(259,203)"/>
<path d="M0 0 C0.66 0.33 1.32 0.66 2 1 C-1.17320782 4.53586014 -3.16743695 6.58578031 -8 7 C-5.42215154 4.35247996 -3.08351902 2.05567935 0 0 Z " fill="#F6DD73" transform="translate(146,127)"/>
<path d="M0 0 C0 3.34419152 -0.47519394 4.06840321 -2.375 6.6875 C-2.81585938 7.31011719 -3.25671875 7.93273437 -3.7109375 8.57421875 C-4.13632813 9.04472656 -4.56171875 9.51523438 -5 10 C-5.66 10 -6.32 10 -7 10 C-5.33248852 6.05860922 -2.77289351 3.2107188 0 0 Z " fill="#F5E178" transform="translate(244,117)"/>
<path d="M0 0 C0.33 0.99 0.66 1.98 1 3 C-4.75 2.25 -4.75 2.25 -7 0 C-3.89953913 -1.03348696 -2.94389782 -1.17755913 0 0 Z " fill="#FAEA99" transform="translate(318,119)"/>
<path d="M0 0 C6.875 3.75 6.875 3.75 8 6 C5.36 5.34 2.72 4.68 0 4 C0 2.68 0 1.36 0 0 Z " fill="#F8E283" transform="translate(259,48)"/>
<path d="M0 0 C1.14926266 0.95421808 2.29430541 1.91352045 3.4375 2.875 C4.07558594 3.40867187 4.71367188 3.94234375 5.37109375 4.4921875 C7 6 7 6 8 8 C5.6875 7.8125 5.6875 7.8125 3 7 C0 2.96551724 0 2.96551724 0 0 Z " fill="#F7E28E" transform="translate(119,391)"/>
<path d="M0 0 C0.66 0.33 1.32 0.66 2 1 C0.68 3.64 -0.64 6.28 -2 9 C-4 5 -4 5 -4 3 C-3.34 3 -2.68 3 -2 3 C-1.34 2.01 -0.68 1.02 0 0 Z " fill="#F5E17B" transform="translate(416,352)"/>
<path d="M0 0 C1.32 0.33 2.64 0.66 4 1 C2.35 2.65 0.7 4.3 -1 6 C-1.99 5.67 -2.98 5.34 -4 5 C-2.68 3.35 -1.36 1.7 0 0 Z " fill="#216C40" transform="translate(301,347)"/>
<path d="M0 0 C2.63664741 2.63664741 4.255224 4.75970171 6 8 C6 8.66 6 9.32 6 10 C5.01 10 4.02 10 3 10 C2.01 6.7 1.02 3.4 0 0 Z " fill="#F8E082" transform="translate(405,183)"/>
<path d="M0 0 C0.66 0.33 1.32 0.66 2 1 C1.67 1.99 1.34 2.98 1 4 C-1.64 3.67 -4.28 3.34 -7 3 C-4.66785852 1.79371992 -2.50357861 0.8345262 0 0 Z " fill="#21693E" transform="translate(316,374)"/>
<path d="M0 0 C1.0326802 2.78823655 1.04509293 3.8677274 0.0625 6.75 C-0.288125 7.4925 -0.63875 8.235 -1 9 C-1.66 8.67 -2.32 8.34 -3 8 C-2.67 6.35 -2.34 4.7 -2 3 C-1.34 3 -0.68 3 0 3 C0 2.01 0 1.02 0 0 Z " fill="#1F6C41" transform="translate(389,286)"/>
<path d="M0 0 C1.65 1.65 3.3 3.3 5 5 C4.67 5.66 4.34 6.32 4 7 C2.68 6.67 1.36 6.34 0 6 C-0.38218767 4.34385343 -0.71395102 2.67542976 -1 1 C-0.67 0.67 -0.34 0.34 0 0 Z " fill="#F4E693" transform="translate(292,91)"/>
<path d="M0 0 C3.48331435 3.01887244 4.79157144 5.56909529 6 10 C5.01 9.67 4.02 9.34 3 9 C2.05078125 6.93359375 2.05078125 6.93359375 1.3125 4.4375 C1.06113281 3.61121094 0.80976563 2.78492188 0.55078125 1.93359375 C0.36902344 1.29550781 0.18726563 0.65742187 0 0 Z " fill="#F8E48C" transform="translate(239,55)"/>
<path d="M0 0 C0.66 0.33 1.32 0.66 2 1 C1.3125 2.9375 1.3125 2.9375 0 5 C-2.625 5.75 -2.625 5.75 -5 6 C-3.35 4.02 -1.7 2.04 0 0 Z " fill="#F5E27E" transform="translate(363,406)"/>
<path d="M0 0 C0.185625 0.9590625 0.185625 0.9590625 0.375 1.9375 C0.684375 2.9584375 0.684375 2.9584375 1 4 C1.66 4.33 2.32 4.66 3 5 C0.92446352 5.5534764 -0.84365964 6 -3 6 C-1.125 1.125 -1.125 1.125 0 0 Z " fill="#256C3F" transform="translate(316,271)"/>
<path d="M0 0 C0.99 0.33 1.98 0.66 3 1 C2.01 1.495 2.01 1.495 1 2 C1 2.66 1 3.32 1 4 C-0.65 4.66 -2.3 5.32 -4 6 C-2.84826645 3.53199953 -1.95216435 1.95216435 0 0 Z " fill="#246B3D" transform="translate(258,212)"/>
</svg>
